G04 #@! TF.FileFunction,Legend,Top*
%FSLAX46Y46*%
G04 Gerber Fmt 4.6, Leading zero omitted, Abs format (unit mm)*
G04 Created by KiCad (PCBNEW 4.0.6-e0-6349~53~ubuntu16.04.1) date Wed Jun 21 09:44:30 2017*
%MOMM*%
%LPD*%
G01*
G04 APERTURE LIST*
%ADD10C,0.100000*%
%ADD11C,0.150000*%
%ADD12C,0.300000*%
%ADD13C,0.400000*%
%ADD14C,0.203200*%
%ADD15C,0.317500*%
%ADD16C,0.225000*%
%ADD17C,0.175000*%
G04 APERTURE END LIST*
D10*
D11*
X177002200Y-166007200D02*
X177002200Y-198007200D01*
X285002200Y-198007200D01*
X285002200Y-166007200D01*
X177002200Y-166007200D01*
D10*
D11*
X10000000Y-10000000D02*
X10000000Y-200007200D01*
X287002200Y-200007200D01*
X287002200Y-10000000D01*
X10000000Y-10000000D01*
D10*
D11*
X12000000Y-12000000D02*
X12000000Y-198007200D01*
X285002200Y-198007200D01*
X285002200Y-12000000D01*
X12000000Y-12000000D01*
D10*
D11*
X60000000Y-12000000D02*
X60000000Y-10000000D01*
D10*
D11*
X110000000Y-12000000D02*
X110000000Y-10000000D01*
D10*
D11*
X160000000Y-12000000D02*
X160000000Y-10000000D01*
D10*
D11*
X210000000Y-12000000D02*
X210000000Y-10000000D01*
D10*
D11*
X260000000Y-12000000D02*
X260000000Y-10000000D01*
D10*
D11*
X35990476Y-11588095D02*
X35247619Y-11588095D01*
X35619048Y-11588095D02*
X35619048Y-10288095D01*
X35495238Y-10473810D01*
X35371429Y-10597619D01*
X35247619Y-10659524D01*
D10*
D11*
X85247619Y-10411905D02*
X85309524Y-10350000D01*
X85433333Y-10288095D01*
X85742857Y-10288095D01*
X85866667Y-10350000D01*
X85928571Y-10411905D01*
X85990476Y-10535714D01*
X85990476Y-10659524D01*
X85928571Y-10845238D01*
X85185714Y-11588095D01*
X85990476Y-11588095D01*
D10*
D11*
X135185714Y-10288095D02*
X135990476Y-10288095D01*
X135557143Y-10783333D01*
X135742857Y-10783333D01*
X135866667Y-10845238D01*
X135928571Y-10907143D01*
X135990476Y-11030952D01*
X135990476Y-11340476D01*
X135928571Y-11464286D01*
X135866667Y-11526190D01*
X135742857Y-11588095D01*
X135371429Y-11588095D01*
X135247619Y-11526190D01*
X135185714Y-11464286D01*
D10*
D11*
X185866667Y-10721429D02*
X185866667Y-11588095D01*
X185557143Y-10226190D02*
X185247619Y-11154762D01*
X186052381Y-11154762D01*
D10*
D11*
X235928571Y-10288095D02*
X235309524Y-10288095D01*
X235247619Y-10907143D01*
X235309524Y-10845238D01*
X235433333Y-10783333D01*
X235742857Y-10783333D01*
X235866667Y-10845238D01*
X235928571Y-10907143D01*
X235990476Y-11030952D01*
X235990476Y-11340476D01*
X235928571Y-11464286D01*
X235866667Y-11526190D01*
X235742857Y-11588095D01*
X235433333Y-11588095D01*
X235309524Y-11526190D01*
X235247619Y-11464286D01*
D10*
D11*
X285866667Y-10288095D02*
X285619048Y-10288095D01*
X285495238Y-10350000D01*
X285433333Y-10411905D01*
X285309524Y-10597619D01*
X285247619Y-10845238D01*
X285247619Y-11340476D01*
X285309524Y-11464286D01*
X285371429Y-11526190D01*
X285495238Y-11588095D01*
X285742857Y-11588095D01*
X285866667Y-11526190D01*
X285928571Y-11464286D01*
X285990476Y-11340476D01*
X285990476Y-11030952D01*
X285928571Y-10907143D01*
X285866667Y-10845238D01*
X285742857Y-10783333D01*
X285495238Y-10783333D01*
X285371429Y-10845238D01*
X285309524Y-10907143D01*
X285247619Y-11030952D01*
D10*
D11*
X60000000Y-198007200D02*
X60000000Y-200007200D01*
D10*
D11*
X110000000Y-198007200D02*
X110000000Y-200007200D01*
D10*
D11*
X160000000Y-198007200D02*
X160000000Y-200007200D01*
D10*
D11*
X210000000Y-198007200D02*
X210000000Y-200007200D01*
D10*
D11*
X260000000Y-198007200D02*
X260000000Y-200007200D01*
D10*
D11*
X35990476Y-199595295D02*
X35247619Y-199595295D01*
X35619048Y-199595295D02*
X35619048Y-198295295D01*
X35495238Y-198481010D01*
X35371429Y-198604819D01*
X35247619Y-198666724D01*
D10*
D11*
X85247619Y-198419105D02*
X85309524Y-198357200D01*
X85433333Y-198295295D01*
X85742857Y-198295295D01*
X85866667Y-198357200D01*
X85928571Y-198419105D01*
X85990476Y-198542914D01*
X85990476Y-198666724D01*
X85928571Y-198852438D01*
X85185714Y-199595295D01*
X85990476Y-199595295D01*
D10*
D11*
X135185714Y-198295295D02*
X135990476Y-198295295D01*
X135557143Y-198790533D01*
X135742857Y-198790533D01*
X135866667Y-198852438D01*
X135928571Y-198914343D01*
X135990476Y-199038152D01*
X135990476Y-199347676D01*
X135928571Y-199471486D01*
X135866667Y-199533390D01*
X135742857Y-199595295D01*
X135371429Y-199595295D01*
X135247619Y-199533390D01*
X135185714Y-199471486D01*
D10*
D11*
X185866667Y-198728629D02*
X185866667Y-199595295D01*
X185557143Y-198233390D02*
X185247619Y-199161962D01*
X186052381Y-199161962D01*
D10*
D11*
X235928571Y-198295295D02*
X235309524Y-198295295D01*
X235247619Y-198914343D01*
X235309524Y-198852438D01*
X235433333Y-198790533D01*
X235742857Y-198790533D01*
X235866667Y-198852438D01*
X235928571Y-198914343D01*
X235990476Y-199038152D01*
X235990476Y-199347676D01*
X235928571Y-199471486D01*
X235866667Y-199533390D01*
X235742857Y-199595295D01*
X235433333Y-199595295D01*
X235309524Y-199533390D01*
X235247619Y-199471486D01*
D10*
D11*
X285866667Y-198295295D02*
X285619048Y-198295295D01*
X285495238Y-198357200D01*
X285433333Y-198419105D01*
X285309524Y-198604819D01*
X285247619Y-198852438D01*
X285247619Y-199347676D01*
X285309524Y-199471486D01*
X285371429Y-199533390D01*
X285495238Y-199595295D01*
X285742857Y-199595295D01*
X285866667Y-199533390D01*
X285928571Y-199471486D01*
X285990476Y-199347676D01*
X285990476Y-199038152D01*
X285928571Y-198914343D01*
X285866667Y-198852438D01*
X285742857Y-198790533D01*
X285495238Y-198790533D01*
X285371429Y-198852438D01*
X285309524Y-198914343D01*
X285247619Y-199038152D01*
D10*
D11*
X10000000Y-60000000D02*
X12000000Y-60000000D01*
D10*
D11*
X10000000Y-110000000D02*
X12000000Y-110000000D01*
D10*
D11*
X10000000Y-160000000D02*
X12000000Y-160000000D01*
D10*
D11*
X10690476Y-35216667D02*
X11309524Y-35216667D01*
X10566667Y-35588095D02*
X11000000Y-34288095D01*
X11433333Y-35588095D01*
D10*
D11*
X11092857Y-84907143D02*
X11278571Y-84969048D01*
X11340476Y-85030952D01*
X11402381Y-85154762D01*
X11402381Y-85340476D01*
X11340476Y-85464286D01*
X11278571Y-85526190D01*
X11154762Y-85588095D01*
X10659524Y-85588095D01*
X10659524Y-84288095D01*
X11092857Y-84288095D01*
X11216667Y-84350000D01*
X11278571Y-84411905D01*
X11340476Y-84535714D01*
X11340476Y-84659524D01*
X11278571Y-84783333D01*
X11216667Y-84845238D01*
X11092857Y-84907143D01*
X10659524Y-84907143D01*
D10*
D11*
X11402381Y-135464286D02*
X11340476Y-135526190D01*
X11154762Y-135588095D01*
X11030952Y-135588095D01*
X10845238Y-135526190D01*
X10721429Y-135402381D01*
X10659524Y-135278571D01*
X10597619Y-135030952D01*
X10597619Y-134845238D01*
X10659524Y-134597619D01*
X10721429Y-134473810D01*
X10845238Y-134350000D01*
X11030952Y-134288095D01*
X11154762Y-134288095D01*
X11340476Y-134350000D01*
X11402381Y-134411905D01*
D10*
D11*
X10659524Y-185588095D02*
X10659524Y-184288095D01*
X10969048Y-184288095D01*
X11154762Y-184350000D01*
X11278571Y-184473810D01*
X11340476Y-184597619D01*
X11402381Y-184845238D01*
X11402381Y-185030952D01*
X11340476Y-185278571D01*
X11278571Y-185402381D01*
X11154762Y-185526190D01*
X10969048Y-185588095D01*
X10659524Y-185588095D01*
D10*
D11*
X287002200Y-60000000D02*
X285002200Y-60000000D01*
D10*
D11*
X287002200Y-110000000D02*
X285002200Y-110000000D01*
D10*
D11*
X287002200Y-160000000D02*
X285002200Y-160000000D01*
D10*
D11*
X285692676Y-35216667D02*
X286311724Y-35216667D01*
X285568867Y-35588095D02*
X286002200Y-34288095D01*
X286435533Y-35588095D01*
D10*
D11*
X286095057Y-84907143D02*
X286280771Y-84969048D01*
X286342676Y-85030952D01*
X286404581Y-85154762D01*
X286404581Y-85340476D01*
X286342676Y-85464286D01*
X286280771Y-85526190D01*
X286156962Y-85588095D01*
X285661724Y-85588095D01*
X285661724Y-84288095D01*
X286095057Y-84288095D01*
X286218867Y-84350000D01*
X286280771Y-84411905D01*
X286342676Y-84535714D01*
X286342676Y-84659524D01*
X286280771Y-84783333D01*
X286218867Y-84845238D01*
X286095057Y-84907143D01*
X285661724Y-84907143D01*
D10*
D11*
X286404581Y-135464286D02*
X286342676Y-135526190D01*
X286156962Y-135588095D01*
X286033152Y-135588095D01*
X285847438Y-135526190D01*
X285723629Y-135402381D01*
X285661724Y-135278571D01*
X285599819Y-135030952D01*
X285599819Y-134845238D01*
X285661724Y-134597619D01*
X285723629Y-134473810D01*
X285847438Y-134350000D01*
X286033152Y-134288095D01*
X286156962Y-134288095D01*
X286342676Y-134350000D01*
X286404581Y-134411905D01*
D10*
D11*
X285661724Y-185588095D02*
X285661724Y-184288095D01*
X285971248Y-184288095D01*
X286156962Y-184350000D01*
X286280771Y-184473810D01*
X286342676Y-184597619D01*
X286404581Y-184845238D01*
X286404581Y-185030952D01*
X286342676Y-185278571D01*
X286280771Y-185402381D01*
X286156962Y-185526190D01*
X285971248Y-185588095D01*
X285661724Y-185588095D01*
D10*
D11*
X200359343Y-193785771D02*
X200359343Y-192285771D01*
X200716486Y-192285771D01*
X200930771Y-192357200D01*
X201073629Y-192500057D01*
X201145057Y-192642914D01*
X201216486Y-192928629D01*
X201216486Y-193142914D01*
X201145057Y-193428629D01*
X201073629Y-193571486D01*
X200930771Y-193714343D01*
X200716486Y-193785771D01*
X200359343Y-193785771D01*
X202502200Y-193785771D02*
X202502200Y-193000057D01*
X202430771Y-192857200D01*
X202287914Y-192785771D01*
X202002200Y-192785771D01*
X201859343Y-192857200D01*
X202502200Y-193714343D02*
X202359343Y-193785771D01*
X202002200Y-193785771D01*
X201859343Y-193714343D01*
X201787914Y-193571486D01*
X201787914Y-193428629D01*
X201859343Y-193285771D01*
X202002200Y-193214343D01*
X202359343Y-193214343D01*
X202502200Y-193142914D01*
X203002200Y-192785771D02*
X203573629Y-192785771D01*
X203216486Y-192285771D02*
X203216486Y-193571486D01*
X203287914Y-193714343D01*
X203430772Y-193785771D01*
X203573629Y-193785771D01*
X204645057Y-193714343D02*
X204502200Y-193785771D01*
X204216486Y-193785771D01*
X204073629Y-193714343D01*
X204002200Y-193571486D01*
X204002200Y-193000057D01*
X204073629Y-192857200D01*
X204216486Y-192785771D01*
X204502200Y-192785771D01*
X204645057Y-192857200D01*
X204716486Y-193000057D01*
X204716486Y-193142914D01*
X204002200Y-193285771D01*
X205359343Y-193642914D02*
X205430771Y-193714343D01*
X205359343Y-193785771D01*
X205287914Y-193714343D01*
X205359343Y-193642914D01*
X205359343Y-193785771D01*
X205359343Y-192857200D02*
X205430771Y-192928629D01*
X205359343Y-193000057D01*
X205287914Y-192928629D01*
X205359343Y-192857200D01*
X205359343Y-193000057D01*
D10*
D11*
X177002200Y-194507200D02*
X285002200Y-194507200D01*
D10*
D11*
X178359343Y-196585771D02*
X178359343Y-195085771D01*
X179216486Y-196585771D02*
X178573629Y-195728629D01*
X179216486Y-195085771D02*
X178359343Y-195942914D01*
X179859343Y-196585771D02*
X179859343Y-195585771D01*
X179859343Y-195085771D02*
X179787914Y-195157200D01*
X179859343Y-195228629D01*
X179930771Y-195157200D01*
X179859343Y-195085771D01*
X179859343Y-195228629D01*
X181430772Y-196442914D02*
X181359343Y-196514343D01*
X181145057Y-196585771D01*
X181002200Y-196585771D01*
X180787915Y-196514343D01*
X180645057Y-196371486D01*
X180573629Y-196228629D01*
X180502200Y-195942914D01*
X180502200Y-195728629D01*
X180573629Y-195442914D01*
X180645057Y-195300057D01*
X180787915Y-195157200D01*
X181002200Y-195085771D01*
X181145057Y-195085771D01*
X181359343Y-195157200D01*
X181430772Y-195228629D01*
X182716486Y-196585771D02*
X182716486Y-195800057D01*
X182645057Y-195657200D01*
X182502200Y-195585771D01*
X182216486Y-195585771D01*
X182073629Y-195657200D01*
X182716486Y-196514343D02*
X182573629Y-196585771D01*
X182216486Y-196585771D01*
X182073629Y-196514343D01*
X182002200Y-196371486D01*
X182002200Y-196228629D01*
X182073629Y-196085771D01*
X182216486Y-196014343D01*
X182573629Y-196014343D01*
X182716486Y-195942914D01*
X184073629Y-196585771D02*
X184073629Y-195085771D01*
X184073629Y-196514343D02*
X183930772Y-196585771D01*
X183645058Y-196585771D01*
X183502200Y-196514343D01*
X183430772Y-196442914D01*
X183359343Y-196300057D01*
X183359343Y-195871486D01*
X183430772Y-195728629D01*
X183502200Y-195657200D01*
X183645058Y-195585771D01*
X183930772Y-195585771D01*
X184073629Y-195657200D01*
X185930772Y-195800057D02*
X186430772Y-195800057D01*
X186645058Y-196585771D02*
X185930772Y-196585771D01*
X185930772Y-195085771D01*
X186645058Y-195085771D01*
X187287915Y-196442914D02*
X187359343Y-196514343D01*
X187287915Y-196585771D01*
X187216486Y-196514343D01*
X187287915Y-196442914D01*
X187287915Y-196585771D01*
X188002201Y-196585771D02*
X188002201Y-195085771D01*
X188359344Y-195085771D01*
X188573629Y-195157200D01*
X188716487Y-195300057D01*
X188787915Y-195442914D01*
X188859344Y-195728629D01*
X188859344Y-195942914D01*
X188787915Y-196228629D01*
X188716487Y-196371486D01*
X188573629Y-196514343D01*
X188359344Y-196585771D01*
X188002201Y-196585771D01*
X189502201Y-196442914D02*
X189573629Y-196514343D01*
X189502201Y-196585771D01*
X189430772Y-196514343D01*
X189502201Y-196442914D01*
X189502201Y-196585771D01*
X190145058Y-196157200D02*
X190859344Y-196157200D01*
X190002201Y-196585771D02*
X190502201Y-195085771D01*
X191002201Y-196585771D01*
X191502201Y-196442914D02*
X191573629Y-196514343D01*
X191502201Y-196585771D01*
X191430772Y-196514343D01*
X191502201Y-196442914D01*
X191502201Y-196585771D01*
X194502201Y-196585771D02*
X194502201Y-195085771D01*
X194645058Y-196014343D02*
X195073629Y-196585771D01*
X195073629Y-195585771D02*
X194502201Y-196157200D01*
X195716487Y-196585771D02*
X195716487Y-195585771D01*
X195716487Y-195085771D02*
X195645058Y-195157200D01*
X195716487Y-195228629D01*
X195787915Y-195157200D01*
X195716487Y-195085771D01*
X195716487Y-195228629D01*
X197073630Y-196514343D02*
X196930773Y-196585771D01*
X196645059Y-196585771D01*
X196502201Y-196514343D01*
X196430773Y-196442914D01*
X196359344Y-196300057D01*
X196359344Y-195871486D01*
X196430773Y-195728629D01*
X196502201Y-195657200D01*
X196645059Y-195585771D01*
X196930773Y-195585771D01*
X197073630Y-195657200D01*
X198359344Y-196585771D02*
X198359344Y-195800057D01*
X198287915Y-195657200D01*
X198145058Y-195585771D01*
X197859344Y-195585771D01*
X197716487Y-195657200D01*
X198359344Y-196514343D02*
X198216487Y-196585771D01*
X197859344Y-196585771D01*
X197716487Y-196514343D01*
X197645058Y-196371486D01*
X197645058Y-196228629D01*
X197716487Y-196085771D01*
X197859344Y-196014343D01*
X198216487Y-196014343D01*
X198359344Y-195942914D01*
X199716487Y-196585771D02*
X199716487Y-195085771D01*
X199716487Y-196514343D02*
X199573630Y-196585771D01*
X199287916Y-196585771D01*
X199145058Y-196514343D01*
X199073630Y-196442914D01*
X199002201Y-196300057D01*
X199002201Y-195871486D01*
X199073630Y-195728629D01*
X199145058Y-195657200D01*
X199287916Y-195585771D01*
X199573630Y-195585771D01*
X199716487Y-195657200D01*
X202216487Y-195585771D02*
X202216487Y-196585771D01*
X201859344Y-195014343D02*
X201502201Y-196085771D01*
X202430773Y-196085771D01*
X203002201Y-196442914D02*
X203073629Y-196514343D01*
X203002201Y-196585771D01*
X202930772Y-196514343D01*
X203002201Y-196442914D01*
X203002201Y-196585771D01*
X204002201Y-195085771D02*
X204145058Y-195085771D01*
X204287915Y-195157200D01*
X204359344Y-195228629D01*
X204430773Y-195371486D01*
X204502201Y-195657200D01*
X204502201Y-196014343D01*
X204430773Y-196300057D01*
X204359344Y-196442914D01*
X204287915Y-196514343D01*
X204145058Y-196585771D01*
X204002201Y-196585771D01*
X203859344Y-196514343D01*
X203787915Y-196442914D01*
X203716487Y-196300057D01*
X203645058Y-196014343D01*
X203645058Y-195657200D01*
X203716487Y-195371486D01*
X203787915Y-195228629D01*
X203859344Y-195157200D01*
X204002201Y-195085771D01*
X205145058Y-196442914D02*
X205216486Y-196514343D01*
X205145058Y-196585771D01*
X205073629Y-196514343D01*
X205145058Y-196442914D01*
X205145058Y-196585771D01*
X206502201Y-195085771D02*
X206216487Y-195085771D01*
X206073630Y-195157200D01*
X206002201Y-195228629D01*
X205859344Y-195442914D01*
X205787915Y-195728629D01*
X205787915Y-196300057D01*
X205859344Y-196442914D01*
X205930772Y-196514343D01*
X206073630Y-196585771D01*
X206359344Y-196585771D01*
X206502201Y-196514343D01*
X206573630Y-196442914D01*
X206645058Y-196300057D01*
X206645058Y-195942914D01*
X206573630Y-195800057D01*
X206502201Y-195728629D01*
X206359344Y-195657200D01*
X206073630Y-195657200D01*
X205930772Y-195728629D01*
X205859344Y-195800057D01*
X205787915Y-195942914D01*
X207287915Y-196014343D02*
X208430772Y-196014343D01*
X209716486Y-196514343D02*
X209573629Y-196585771D01*
X209287915Y-196585771D01*
X209145058Y-196514343D01*
X209073629Y-196371486D01*
X209073629Y-195800057D01*
X209145058Y-195657200D01*
X209287915Y-195585771D01*
X209573629Y-195585771D01*
X209716486Y-195657200D01*
X209787915Y-195800057D01*
X209787915Y-195942914D01*
X209073629Y-196085771D01*
X210716486Y-195085771D02*
X210859343Y-195085771D01*
X211002200Y-195157200D01*
X211073629Y-195228629D01*
X211145058Y-195371486D01*
X211216486Y-195657200D01*
X211216486Y-196014343D01*
X211145058Y-196300057D01*
X211073629Y-196442914D01*
X211002200Y-196514343D01*
X210859343Y-196585771D01*
X210716486Y-196585771D01*
X210573629Y-196514343D01*
X210502200Y-196442914D01*
X210430772Y-196300057D01*
X210359343Y-196014343D01*
X210359343Y-195657200D01*
X210430772Y-195371486D01*
X210502200Y-195228629D01*
X210573629Y-195157200D01*
X210716486Y-195085771D01*
X211859343Y-196014343D02*
X213002200Y-196014343D01*
X214359343Y-195085771D02*
X214073629Y-195085771D01*
X213930772Y-195157200D01*
X213859343Y-195228629D01*
X213716486Y-195442914D01*
X213645057Y-195728629D01*
X213645057Y-196300057D01*
X213716486Y-196442914D01*
X213787914Y-196514343D01*
X213930772Y-196585771D01*
X214216486Y-196585771D01*
X214359343Y-196514343D01*
X214430772Y-196442914D01*
X214502200Y-196300057D01*
X214502200Y-195942914D01*
X214430772Y-195800057D01*
X214359343Y-195728629D01*
X214216486Y-195657200D01*
X213930772Y-195657200D01*
X213787914Y-195728629D01*
X213716486Y-195800057D01*
X213645057Y-195942914D01*
X215002200Y-195085771D02*
X215930771Y-195085771D01*
X215430771Y-195657200D01*
X215645057Y-195657200D01*
X215787914Y-195728629D01*
X215859343Y-195800057D01*
X215930771Y-195942914D01*
X215930771Y-196300057D01*
X215859343Y-196442914D01*
X215787914Y-196514343D01*
X215645057Y-196585771D01*
X215216485Y-196585771D01*
X215073628Y-196514343D01*
X215002200Y-196442914D01*
X217216485Y-195585771D02*
X217216485Y-196585771D01*
X216859342Y-195014343D02*
X216502199Y-196085771D01*
X217430771Y-196085771D01*
X218073627Y-196585771D02*
X218359342Y-196585771D01*
X218502199Y-196514343D01*
X218573627Y-196442914D01*
X218716485Y-196228629D01*
X218787913Y-195942914D01*
X218787913Y-195371486D01*
X218716485Y-195228629D01*
X218645056Y-195157200D01*
X218502199Y-195085771D01*
X218216485Y-195085771D01*
X218073627Y-195157200D01*
X218002199Y-195228629D01*
X217930770Y-195371486D01*
X217930770Y-195728629D01*
X218002199Y-195871486D01*
X218073627Y-195942914D01*
X218216485Y-196014343D01*
X218502199Y-196014343D01*
X218645056Y-195942914D01*
X218716485Y-195871486D01*
X218787913Y-195728629D01*
X220145056Y-195085771D02*
X219430770Y-195085771D01*
X219359341Y-195800057D01*
X219430770Y-195728629D01*
X219573627Y-195657200D01*
X219930770Y-195657200D01*
X220073627Y-195728629D01*
X220145056Y-195800057D01*
X220216484Y-195942914D01*
X220216484Y-196300057D01*
X220145056Y-196442914D01*
X220073627Y-196514343D01*
X219930770Y-196585771D01*
X219573627Y-196585771D01*
X219430770Y-196514343D01*
X219359341Y-196442914D01*
X220716484Y-195085771D02*
X221645055Y-195085771D01*
X221145055Y-195657200D01*
X221359341Y-195657200D01*
X221502198Y-195728629D01*
X221573627Y-195800057D01*
X221645055Y-195942914D01*
X221645055Y-196300057D01*
X221573627Y-196442914D01*
X221502198Y-196514343D01*
X221359341Y-196585771D01*
X220930769Y-196585771D01*
X220787912Y-196514343D01*
X220716484Y-196442914D01*
X219073627Y-194827200D02*
X221930769Y-194827200D01*
X222930769Y-195585771D02*
X222930769Y-196585771D01*
X222287912Y-195585771D02*
X222287912Y-196371486D01*
X222359340Y-196514343D01*
X222502198Y-196585771D01*
X222716483Y-196585771D01*
X222859340Y-196514343D01*
X222930769Y-196442914D01*
X223645055Y-196585771D02*
X223645055Y-195085771D01*
X223645055Y-195657200D02*
X223787912Y-195585771D01*
X224073626Y-195585771D01*
X224216483Y-195657200D01*
X224287912Y-195728629D01*
X224359341Y-195871486D01*
X224359341Y-196300057D01*
X224287912Y-196442914D01*
X224216483Y-196514343D01*
X224073626Y-196585771D01*
X223787912Y-196585771D01*
X223645055Y-196514343D01*
X225645055Y-195585771D02*
X225645055Y-196585771D01*
X225002198Y-195585771D02*
X225002198Y-196371486D01*
X225073626Y-196514343D01*
X225216484Y-196585771D01*
X225430769Y-196585771D01*
X225573626Y-196514343D01*
X225645055Y-196442914D01*
X226359341Y-195585771D02*
X226359341Y-196585771D01*
X226359341Y-195728629D02*
X226430769Y-195657200D01*
X226573627Y-195585771D01*
X226787912Y-195585771D01*
X226930769Y-195657200D01*
X227002198Y-195800057D01*
X227002198Y-196585771D01*
X227502198Y-195585771D02*
X228073627Y-195585771D01*
X227716484Y-195085771D02*
X227716484Y-196371486D01*
X227787912Y-196514343D01*
X227930770Y-196585771D01*
X228073627Y-196585771D01*
X229216484Y-195585771D02*
X229216484Y-196585771D01*
X228573627Y-195585771D02*
X228573627Y-196371486D01*
X228645055Y-196514343D01*
X228787913Y-196585771D01*
X229002198Y-196585771D01*
X229145055Y-196514343D01*
X229216484Y-196442914D01*
X230716484Y-196585771D02*
X229859341Y-196585771D01*
X230287913Y-196585771D02*
X230287913Y-195085771D01*
X230145056Y-195300057D01*
X230002198Y-195442914D01*
X229859341Y-195514343D01*
X232002198Y-195085771D02*
X231716484Y-195085771D01*
X231573627Y-195157200D01*
X231502198Y-195228629D01*
X231359341Y-195442914D01*
X231287912Y-195728629D01*
X231287912Y-196300057D01*
X231359341Y-196442914D01*
X231430769Y-196514343D01*
X231573627Y-196585771D01*
X231859341Y-196585771D01*
X232002198Y-196514343D01*
X232073627Y-196442914D01*
X232145055Y-196300057D01*
X232145055Y-195942914D01*
X232073627Y-195800057D01*
X232002198Y-195728629D01*
X231859341Y-195657200D01*
X231573627Y-195657200D01*
X231430769Y-195728629D01*
X231359341Y-195800057D01*
X231287912Y-195942914D01*
X232787912Y-196442914D02*
X232859340Y-196514343D01*
X232787912Y-196585771D01*
X232716483Y-196514343D01*
X232787912Y-196442914D01*
X232787912Y-196585771D01*
X233787912Y-195085771D02*
X233930769Y-195085771D01*
X234073626Y-195157200D01*
X234145055Y-195228629D01*
X234216484Y-195371486D01*
X234287912Y-195657200D01*
X234287912Y-196014343D01*
X234216484Y-196300057D01*
X234145055Y-196442914D01*
X234073626Y-196514343D01*
X233930769Y-196585771D01*
X233787912Y-196585771D01*
X233645055Y-196514343D01*
X233573626Y-196442914D01*
X233502198Y-196300057D01*
X233430769Y-196014343D01*
X233430769Y-195657200D01*
X233502198Y-195371486D01*
X233573626Y-195228629D01*
X233645055Y-195157200D01*
X233787912Y-195085771D01*
X235573626Y-195585771D02*
X235573626Y-196585771D01*
X235216483Y-195014343D02*
X234859340Y-196085771D01*
X235787912Y-196085771D01*
X236359340Y-196442914D02*
X236430768Y-196514343D01*
X236359340Y-196585771D01*
X236287911Y-196514343D01*
X236359340Y-196442914D01*
X236359340Y-196585771D01*
X237859340Y-196585771D02*
X237002197Y-196585771D01*
X237430769Y-196585771D02*
X237430769Y-195085771D01*
X237287912Y-195300057D01*
X237145054Y-195442914D01*
X237002197Y-195514343D01*
D10*
D11*
X177002200Y-191507200D02*
X285002200Y-191507200D01*
D10*
D12*
X264216486Y-193785771D02*
X263716486Y-193071486D01*
X263359343Y-193785771D02*
X263359343Y-192285771D01*
X263930771Y-192285771D01*
X264073629Y-192357200D01*
X264145057Y-192428629D01*
X264216486Y-192571486D01*
X264216486Y-192785771D01*
X264145057Y-192928629D01*
X264073629Y-193000057D01*
X263930771Y-193071486D01*
X263359343Y-193071486D01*
X265430771Y-193714343D02*
X265287914Y-193785771D01*
X265002200Y-193785771D01*
X264859343Y-193714343D01*
X264787914Y-193571486D01*
X264787914Y-193000057D01*
X264859343Y-192857200D01*
X265002200Y-192785771D01*
X265287914Y-192785771D01*
X265430771Y-192857200D01*
X265502200Y-193000057D01*
X265502200Y-193142914D01*
X264787914Y-193285771D01*
X266002200Y-192785771D02*
X266359343Y-193785771D01*
X266716485Y-192785771D01*
X267287914Y-193642914D02*
X267359342Y-193714343D01*
X267287914Y-193785771D01*
X267216485Y-193714343D01*
X267287914Y-193642914D01*
X267287914Y-193785771D01*
X267287914Y-192857200D02*
X267359342Y-192928629D01*
X267287914Y-193000057D01*
X267216485Y-192928629D01*
X267287914Y-192857200D01*
X267287914Y-193000057D01*
D10*
D11*
X178287914Y-193714343D02*
X178502200Y-193785771D01*
X178859343Y-193785771D01*
X179002200Y-193714343D01*
X179073629Y-193642914D01*
X179145057Y-193500057D01*
X179145057Y-193357200D01*
X179073629Y-193214343D01*
X179002200Y-193142914D01*
X178859343Y-193071486D01*
X178573629Y-193000057D01*
X178430771Y-192928629D01*
X178359343Y-192857200D01*
X178287914Y-192714343D01*
X178287914Y-192571486D01*
X178359343Y-192428629D01*
X178430771Y-192357200D01*
X178573629Y-192285771D01*
X178930771Y-192285771D01*
X179145057Y-192357200D01*
X179787914Y-193785771D02*
X179787914Y-192785771D01*
X179787914Y-192285771D02*
X179716485Y-192357200D01*
X179787914Y-192428629D01*
X179859342Y-192357200D01*
X179787914Y-192285771D01*
X179787914Y-192428629D01*
X180359343Y-192785771D02*
X181145057Y-192785771D01*
X180359343Y-193785771D01*
X181145057Y-193785771D01*
X182287914Y-193714343D02*
X182145057Y-193785771D01*
X181859343Y-193785771D01*
X181716486Y-193714343D01*
X181645057Y-193571486D01*
X181645057Y-193000057D01*
X181716486Y-192857200D01*
X181859343Y-192785771D01*
X182145057Y-192785771D01*
X182287914Y-192857200D01*
X182359343Y-193000057D01*
X182359343Y-193142914D01*
X181645057Y-193285771D01*
X183002200Y-193642914D02*
X183073628Y-193714343D01*
X183002200Y-193785771D01*
X182930771Y-193714343D01*
X183002200Y-193642914D01*
X183002200Y-193785771D01*
X183002200Y-192857200D02*
X183073628Y-192928629D01*
X183002200Y-193000057D01*
X182930771Y-192928629D01*
X183002200Y-192857200D01*
X183002200Y-193000057D01*
X184787914Y-193357200D02*
X185502200Y-193357200D01*
X184645057Y-193785771D02*
X185145057Y-192285771D01*
X185645057Y-193785771D01*
X186787914Y-192785771D02*
X186787914Y-193785771D01*
X186430771Y-192214343D02*
X186073628Y-193285771D01*
X187002200Y-193285771D01*
D10*
D11*
X263359343Y-196585771D02*
X263359343Y-195085771D01*
X264716486Y-196585771D02*
X264716486Y-195085771D01*
X264716486Y-196514343D02*
X264573629Y-196585771D01*
X264287915Y-196585771D01*
X264145057Y-196514343D01*
X264073629Y-196442914D01*
X264002200Y-196300057D01*
X264002200Y-195871486D01*
X264073629Y-195728629D01*
X264145057Y-195657200D01*
X264287915Y-195585771D01*
X264573629Y-195585771D01*
X264716486Y-195657200D01*
X265430772Y-196442914D02*
X265502200Y-196514343D01*
X265430772Y-196585771D01*
X265359343Y-196514343D01*
X265430772Y-196442914D01*
X265430772Y-196585771D01*
X265430772Y-195657200D02*
X265502200Y-195728629D01*
X265430772Y-195800057D01*
X265359343Y-195728629D01*
X265430772Y-195657200D01*
X265430772Y-195800057D01*
X268073629Y-196585771D02*
X267216486Y-196585771D01*
X267645058Y-196585771D02*
X267645058Y-195085771D01*
X267502201Y-195300057D01*
X267359343Y-195442914D01*
X267216486Y-195514343D01*
X269787914Y-195014343D02*
X268502200Y-196942914D01*
X271073629Y-196585771D02*
X270216486Y-196585771D01*
X270645058Y-196585771D02*
X270645058Y-195085771D01*
X270502201Y-195300057D01*
X270359343Y-195442914D01*
X270216486Y-195514343D01*
D10*
D11*
X177002200Y-187507200D02*
X285002200Y-187507200D01*
D10*
D13*
X178454581Y-188211962D02*
X179597438Y-188211962D01*
X178776010Y-190211962D02*
X179026010Y-188211962D01*
X180014105Y-190211962D02*
X180180771Y-188878629D01*
X180264105Y-188211962D02*
X180156962Y-188307200D01*
X180240295Y-188402438D01*
X180347439Y-188307200D01*
X180264105Y-188211962D01*
X180240295Y-188402438D01*
X180847438Y-188878629D02*
X181609343Y-188878629D01*
X181216486Y-188211962D02*
X181002200Y-189926248D01*
X181073630Y-190116724D01*
X181252201Y-190211962D01*
X181442677Y-190211962D01*
X182395058Y-190211962D02*
X182216487Y-190116724D01*
X182145057Y-189926248D01*
X182359343Y-188211962D01*
X183930772Y-190116724D02*
X183728391Y-190211962D01*
X183347439Y-190211962D01*
X183168867Y-190116724D01*
X183097438Y-189926248D01*
X183192676Y-189164343D01*
X183311724Y-188973867D01*
X183514105Y-188878629D01*
X183895057Y-188878629D01*
X184073629Y-188973867D01*
X184145057Y-189164343D01*
X184121248Y-189354819D01*
X183145057Y-189545295D01*
X184895057Y-190021486D02*
X184978392Y-190116724D01*
X184871248Y-190211962D01*
X184787915Y-190116724D01*
X184895057Y-190021486D01*
X184871248Y-190211962D01*
X185026010Y-188973867D02*
X185109344Y-189069105D01*
X185002200Y-189164343D01*
X184918867Y-189069105D01*
X185026010Y-188973867D01*
X185002200Y-189164343D01*
D10*
D11*
X178859343Y-185600057D02*
X178359343Y-185600057D01*
X178359343Y-186385771D02*
X178359343Y-184885771D01*
X179073629Y-184885771D01*
X179645057Y-186385771D02*
X179645057Y-185385771D01*
X179645057Y-184885771D02*
X179573628Y-184957200D01*
X179645057Y-185028629D01*
X179716485Y-184957200D01*
X179645057Y-184885771D01*
X179645057Y-185028629D01*
X180573629Y-186385771D02*
X180430771Y-186314343D01*
X180359343Y-186171486D01*
X180359343Y-184885771D01*
X181716485Y-186314343D02*
X181573628Y-186385771D01*
X181287914Y-186385771D01*
X181145057Y-186314343D01*
X181073628Y-186171486D01*
X181073628Y-185600057D01*
X181145057Y-185457200D01*
X181287914Y-185385771D01*
X181573628Y-185385771D01*
X181716485Y-185457200D01*
X181787914Y-185600057D01*
X181787914Y-185742914D01*
X181073628Y-185885771D01*
X182430771Y-186242914D02*
X182502199Y-186314343D01*
X182430771Y-186385771D01*
X182359342Y-186314343D01*
X182430771Y-186242914D01*
X182430771Y-186385771D01*
X182430771Y-185457200D02*
X182502199Y-185528629D01*
X182430771Y-185600057D01*
X182359342Y-185528629D01*
X182430771Y-185457200D01*
X182430771Y-185600057D01*
X184287914Y-185385771D02*
X184287914Y-186385771D01*
X184287914Y-185528629D02*
X184359342Y-185457200D01*
X184502200Y-185385771D01*
X184716485Y-185385771D01*
X184859342Y-185457200D01*
X184930771Y-185600057D01*
X184930771Y-186385771D01*
X186502200Y-186385771D02*
X186002200Y-185671486D01*
X185645057Y-186385771D02*
X185645057Y-184885771D01*
X186216485Y-184885771D01*
X186359343Y-184957200D01*
X186430771Y-185028629D01*
X186502200Y-185171486D01*
X186502200Y-185385771D01*
X186430771Y-185528629D01*
X186359343Y-185600057D01*
X186216485Y-185671486D01*
X185645057Y-185671486D01*
X187645057Y-185600057D02*
X187145057Y-185600057D01*
X187145057Y-186385771D02*
X187145057Y-184885771D01*
X187859343Y-184885771D01*
X188359342Y-185028629D02*
X188430771Y-184957200D01*
X188573628Y-184885771D01*
X188930771Y-184885771D01*
X189073628Y-184957200D01*
X189145057Y-185028629D01*
X189216485Y-185171486D01*
X189216485Y-185314343D01*
X189145057Y-185528629D01*
X188287914Y-186385771D01*
X189216485Y-186385771D01*
X190502199Y-185385771D02*
X190502199Y-186385771D01*
X190145056Y-184814343D02*
X189787913Y-185885771D01*
X190716485Y-185885771D01*
X192930770Y-185600057D02*
X193145056Y-185671486D01*
X193216484Y-185742914D01*
X193287913Y-185885771D01*
X193287913Y-186100057D01*
X193216484Y-186242914D01*
X193145056Y-186314343D01*
X193002198Y-186385771D01*
X192430770Y-186385771D01*
X192430770Y-184885771D01*
X192930770Y-184885771D01*
X193073627Y-184957200D01*
X193145056Y-185028629D01*
X193216484Y-185171486D01*
X193216484Y-185314343D01*
X193145056Y-185457200D01*
X193073627Y-185528629D01*
X192930770Y-185600057D01*
X192430770Y-185600057D01*
X193930770Y-186385771D02*
X193930770Y-185385771D01*
X193930770Y-185671486D02*
X194002198Y-185528629D01*
X194073627Y-185457200D01*
X194216484Y-185385771D01*
X194359341Y-185385771D01*
X195430769Y-186314343D02*
X195287912Y-186385771D01*
X195002198Y-186385771D01*
X194859341Y-186314343D01*
X194787912Y-186171486D01*
X194787912Y-185600057D01*
X194859341Y-185457200D01*
X195002198Y-185385771D01*
X195287912Y-185385771D01*
X195430769Y-185457200D01*
X195502198Y-185600057D01*
X195502198Y-185742914D01*
X194787912Y-185885771D01*
X196787912Y-186385771D02*
X196787912Y-185600057D01*
X196716483Y-185457200D01*
X196573626Y-185385771D01*
X196287912Y-185385771D01*
X196145055Y-185457200D01*
X196787912Y-186314343D02*
X196645055Y-186385771D01*
X196287912Y-186385771D01*
X196145055Y-186314343D01*
X196073626Y-186171486D01*
X196073626Y-186028629D01*
X196145055Y-185885771D01*
X196287912Y-185814343D01*
X196645055Y-185814343D01*
X196787912Y-185742914D01*
X197502198Y-186385771D02*
X197502198Y-184885771D01*
X197645055Y-185814343D02*
X198073626Y-186385771D01*
X198073626Y-185385771D02*
X197502198Y-185957200D01*
X198930770Y-186385771D02*
X198787912Y-186314343D01*
X198716484Y-186242914D01*
X198645055Y-186100057D01*
X198645055Y-185671486D01*
X198716484Y-185528629D01*
X198787912Y-185457200D01*
X198930770Y-185385771D01*
X199145055Y-185385771D01*
X199287912Y-185457200D01*
X199359341Y-185528629D01*
X199430770Y-185671486D01*
X199430770Y-186100057D01*
X199359341Y-186242914D01*
X199287912Y-186314343D01*
X199145055Y-186385771D01*
X198930770Y-186385771D01*
X200716484Y-185385771D02*
X200716484Y-186385771D01*
X200073627Y-185385771D02*
X200073627Y-186171486D01*
X200145055Y-186314343D01*
X200287913Y-186385771D01*
X200502198Y-186385771D01*
X200645055Y-186314343D01*
X200716484Y-186242914D01*
X201216484Y-185385771D02*
X201787913Y-185385771D01*
X201430770Y-184885771D02*
X201430770Y-186171486D01*
X201502198Y-186314343D01*
X201645056Y-186385771D01*
X201787913Y-186385771D01*
X202287913Y-186242914D02*
X202359341Y-186314343D01*
X202287913Y-186385771D01*
X202216484Y-186314343D01*
X202287913Y-186242914D01*
X202287913Y-186385771D01*
X203002199Y-186385771D02*
X203002199Y-184885771D01*
X203145056Y-185814343D02*
X203573627Y-186385771D01*
X203573627Y-185385771D02*
X203002199Y-185957200D01*
X204216485Y-186385771D02*
X204216485Y-185385771D01*
X204216485Y-184885771D02*
X204145056Y-184957200D01*
X204216485Y-185028629D01*
X204287913Y-184957200D01*
X204216485Y-184885771D01*
X204216485Y-185028629D01*
X205573628Y-186314343D02*
X205430771Y-186385771D01*
X205145057Y-186385771D01*
X205002199Y-186314343D01*
X204930771Y-186242914D01*
X204859342Y-186100057D01*
X204859342Y-185671486D01*
X204930771Y-185528629D01*
X205002199Y-185457200D01*
X205145057Y-185385771D01*
X205430771Y-185385771D01*
X205573628Y-185457200D01*
X206859342Y-186385771D02*
X206859342Y-185600057D01*
X206787913Y-185457200D01*
X206645056Y-185385771D01*
X206359342Y-185385771D01*
X206216485Y-185457200D01*
X206859342Y-186314343D02*
X206716485Y-186385771D01*
X206359342Y-186385771D01*
X206216485Y-186314343D01*
X206145056Y-186171486D01*
X206145056Y-186028629D01*
X206216485Y-185885771D01*
X206359342Y-185814343D01*
X206716485Y-185814343D01*
X206859342Y-185742914D01*
X208216485Y-186385771D02*
X208216485Y-184885771D01*
X208216485Y-186314343D02*
X208073628Y-186385771D01*
X207787914Y-186385771D01*
X207645056Y-186314343D01*
X207573628Y-186242914D01*
X207502199Y-186100057D01*
X207502199Y-185671486D01*
X207573628Y-185528629D01*
X207645056Y-185457200D01*
X207787914Y-185385771D01*
X208073628Y-185385771D01*
X208216485Y-185457200D01*
X208573628Y-186528629D02*
X209716485Y-186528629D01*
X210073628Y-185385771D02*
X210073628Y-186885771D01*
X210073628Y-185457200D02*
X210216485Y-185385771D01*
X210502199Y-185385771D01*
X210645056Y-185457200D01*
X210716485Y-185528629D01*
X210787914Y-185671486D01*
X210787914Y-186100057D01*
X210716485Y-186242914D01*
X210645056Y-186314343D01*
X210502199Y-186385771D01*
X210216485Y-186385771D01*
X210073628Y-186314343D01*
X212073628Y-186314343D02*
X211930771Y-186385771D01*
X211645057Y-186385771D01*
X211502199Y-186314343D01*
X211430771Y-186242914D01*
X211359342Y-186100057D01*
X211359342Y-185671486D01*
X211430771Y-185528629D01*
X211502199Y-185457200D01*
X211645057Y-185385771D01*
X211930771Y-185385771D01*
X212073628Y-185457200D01*
X212716485Y-186385771D02*
X212716485Y-184885771D01*
X212716485Y-185457200D02*
X212859342Y-185385771D01*
X213145056Y-185385771D01*
X213287913Y-185457200D01*
X213359342Y-185528629D01*
X213430771Y-185671486D01*
X213430771Y-186100057D01*
X213359342Y-186242914D01*
X213287913Y-186314343D01*
X213145056Y-186385771D01*
X212859342Y-186385771D01*
X212716485Y-186314343D01*
D10*
D11*
X177002200Y-181507200D02*
X285002200Y-181507200D01*
D10*
D11*
X178287914Y-183614343D02*
X178502200Y-183685771D01*
X178859343Y-183685771D01*
X179002200Y-183614343D01*
X179073629Y-183542914D01*
X179145057Y-183400057D01*
X179145057Y-183257200D01*
X179073629Y-183114343D01*
X179002200Y-183042914D01*
X178859343Y-182971486D01*
X178573629Y-182900057D01*
X178430771Y-182828629D01*
X178359343Y-182757200D01*
X178287914Y-182614343D01*
X178287914Y-182471486D01*
X178359343Y-182328629D01*
X178430771Y-182257200D01*
X178573629Y-182185771D01*
X178930771Y-182185771D01*
X179145057Y-182257200D01*
X179787914Y-183685771D02*
X179787914Y-182185771D01*
X180430771Y-183685771D02*
X180430771Y-182900057D01*
X180359342Y-182757200D01*
X180216485Y-182685771D01*
X180002200Y-182685771D01*
X179859342Y-182757200D01*
X179787914Y-182828629D01*
X181716485Y-183614343D02*
X181573628Y-183685771D01*
X181287914Y-183685771D01*
X181145057Y-183614343D01*
X181073628Y-183471486D01*
X181073628Y-182900057D01*
X181145057Y-182757200D01*
X181287914Y-182685771D01*
X181573628Y-182685771D01*
X181716485Y-182757200D01*
X181787914Y-182900057D01*
X181787914Y-183042914D01*
X181073628Y-183185771D01*
X183002199Y-183614343D02*
X182859342Y-183685771D01*
X182573628Y-183685771D01*
X182430771Y-183614343D01*
X182359342Y-183471486D01*
X182359342Y-182900057D01*
X182430771Y-182757200D01*
X182573628Y-182685771D01*
X182859342Y-182685771D01*
X183002199Y-182757200D01*
X183073628Y-182900057D01*
X183073628Y-183042914D01*
X182359342Y-183185771D01*
X183502199Y-182685771D02*
X184073628Y-182685771D01*
X183716485Y-182185771D02*
X183716485Y-183471486D01*
X183787913Y-183614343D01*
X183930771Y-183685771D01*
X184073628Y-183685771D01*
X184573628Y-183542914D02*
X184645056Y-183614343D01*
X184573628Y-183685771D01*
X184502199Y-183614343D01*
X184573628Y-183542914D01*
X184573628Y-183685771D01*
X184573628Y-182757200D02*
X184645056Y-182828629D01*
X184573628Y-182900057D01*
X184502199Y-182828629D01*
X184573628Y-182757200D01*
X184573628Y-182900057D01*
D10*
D11*
X197002200Y-191507200D02*
X197002200Y-194507200D01*
D10*
D11*
X261002200Y-191507200D02*
X261002200Y-198007200D01*
D12*
X157221429Y-113280000D02*
X157935715Y-113280000D01*
X157078572Y-113708571D02*
X157578572Y-112208571D01*
X158078572Y-113708571D01*
X158507143Y-113637143D02*
X158650000Y-113708571D01*
X158935715Y-113708571D01*
X159078572Y-113637143D01*
X159150000Y-113494286D01*
X159150000Y-113422857D01*
X159078572Y-113280000D01*
X158935715Y-113208571D01*
X158721429Y-113208571D01*
X158578572Y-113137143D01*
X158507143Y-112994286D01*
X158507143Y-112922857D01*
X158578572Y-112780000D01*
X158721429Y-112708571D01*
X158935715Y-112708571D01*
X159078572Y-112780000D01*
X159578572Y-112708571D02*
X160150001Y-112708571D01*
X159792858Y-112208571D02*
X159792858Y-113494286D01*
X159864286Y-113637143D01*
X160007144Y-113708571D01*
X160150001Y-113708571D01*
X160650001Y-113708571D02*
X160650001Y-112708571D01*
X160650001Y-112994286D02*
X160721429Y-112851429D01*
X160792858Y-112780000D01*
X160935715Y-112708571D01*
X161078572Y-112708571D01*
X162364286Y-113708571D02*
X161507143Y-113708571D01*
X161935715Y-113708571D02*
X161935715Y-112208571D01*
X161792858Y-112422857D01*
X161650000Y-112565714D01*
X161507143Y-112637143D01*
X162864286Y-113708571D02*
X163650000Y-112708571D01*
X162864286Y-112708571D02*
X163650000Y-113708571D01*
D14*
X168240000Y-99365000D02*
X168240000Y-98095000D01*
X168240000Y-98095000D02*
X168875000Y-97460000D01*
X170145000Y-97460000D02*
X170780000Y-98095000D01*
X168875000Y-102540000D02*
X168240000Y-101905000D01*
X168240000Y-101905000D02*
X168240000Y-100635000D01*
X168240000Y-100635000D02*
X168875000Y-100000000D01*
X170145000Y-100000000D02*
X170780000Y-100635000D01*
X170780000Y-100635000D02*
X170780000Y-101905000D01*
X170780000Y-101905000D02*
X170145000Y-102540000D01*
X168240000Y-99365000D02*
X168875000Y-100000000D01*
X170145000Y-100000000D02*
X170780000Y-99365000D01*
X170780000Y-98095000D02*
X170780000Y-99365000D01*
X168240000Y-106985000D02*
X168240000Y-105715000D01*
X168240000Y-105715000D02*
X168875000Y-105080000D01*
X170145000Y-105080000D02*
X170780000Y-105715000D01*
X168875000Y-105080000D02*
X168240000Y-104445000D01*
X168240000Y-104445000D02*
X168240000Y-103175000D01*
X168240000Y-103175000D02*
X168875000Y-102540000D01*
X170145000Y-102540000D02*
X170780000Y-103175000D01*
X170780000Y-103175000D02*
X170780000Y-104445000D01*
X170780000Y-104445000D02*
X170145000Y-105080000D01*
X168875000Y-110160000D02*
X168240000Y-109525000D01*
X168240000Y-109525000D02*
X168240000Y-108255000D01*
X168240000Y-108255000D02*
X168875000Y-107620000D01*
X170145000Y-107620000D02*
X170780000Y-108255000D01*
X170780000Y-108255000D02*
X170780000Y-109525000D01*
X170780000Y-109525000D02*
X170145000Y-110160000D01*
X168240000Y-106985000D02*
X168875000Y-107620000D01*
X170145000Y-107620000D02*
X170780000Y-106985000D01*
X170780000Y-105715000D02*
X170780000Y-106985000D01*
X168240000Y-114605000D02*
X168240000Y-113335000D01*
X168240000Y-113335000D02*
X168875000Y-112700000D01*
X170145000Y-112700000D02*
X170780000Y-113335000D01*
X168875000Y-112700000D02*
X168240000Y-112065000D01*
X168240000Y-112065000D02*
X168240000Y-110795000D01*
X168240000Y-110795000D02*
X168875000Y-110160000D01*
X170145000Y-110160000D02*
X170780000Y-110795000D01*
X170780000Y-110795000D02*
X170780000Y-112065000D01*
X170780000Y-112065000D02*
X170145000Y-112700000D01*
X168875000Y-115240000D02*
X170145000Y-115240000D01*
X168240000Y-114605000D02*
X168875000Y-115240000D01*
X170145000Y-115240000D02*
X170780000Y-114605000D01*
X170780000Y-113335000D02*
X170780000Y-114605000D01*
X168240000Y-96825000D02*
X168240000Y-95555000D01*
X168240000Y-95555000D02*
X168875000Y-94920000D01*
X168875000Y-94920000D02*
X170145000Y-94920000D01*
X170145000Y-94920000D02*
X170780000Y-95555000D01*
X168240000Y-96825000D02*
X168875000Y-97460000D01*
X170145000Y-97460000D02*
X170780000Y-96825000D01*
X170780000Y-95555000D02*
X170780000Y-96825000D01*
D11*
X165379400Y-109921040D02*
X165407340Y-109474000D01*
X148856700Y-109954060D02*
X165379400Y-109921040D01*
X165376860Y-99669600D02*
X165387020Y-109656880D01*
X148859240Y-99674680D02*
X165376860Y-99669600D01*
X148869400Y-109948980D02*
X148859240Y-99674680D01*
D15*
X166684524Y-105513333D02*
X167591667Y-105513333D01*
X167773095Y-105573809D01*
X167894048Y-105694761D01*
X167954524Y-105876190D01*
X167954524Y-105997142D01*
X167954524Y-104243333D02*
X167954524Y-104969047D01*
X167954524Y-104606190D02*
X166684524Y-104606190D01*
X166865952Y-104727142D01*
X166986905Y-104848095D01*
X167047381Y-104969047D01*
D16*
X152412786Y-102352861D02*
X152412786Y-103162385D01*
X152455643Y-103257623D01*
X152498500Y-103305242D01*
X152584214Y-103352861D01*
X152755643Y-103352861D01*
X152841357Y-103305242D01*
X152884214Y-103257623D01*
X152927071Y-103162385D01*
X152927071Y-102352861D01*
X153827071Y-103352861D02*
X153312786Y-103352861D01*
X153569928Y-103352861D02*
X153569928Y-102352861D01*
X153484214Y-102495718D01*
X153398500Y-102590956D01*
X153312786Y-102638575D01*
D17*
X157167767Y-108210267D02*
X157401100Y-108910267D01*
X157634433Y-108210267D01*
X158267767Y-108843600D02*
X158234433Y-108876933D01*
X158134433Y-108910267D01*
X158067767Y-108910267D01*
X157967767Y-108876933D01*
X157901100Y-108810267D01*
X157867767Y-108743600D01*
X157834433Y-108610267D01*
X157834433Y-108510267D01*
X157867767Y-108376933D01*
X157901100Y-108310267D01*
X157967767Y-108243600D01*
X158067767Y-108210267D01*
X158134433Y-108210267D01*
X158234433Y-108243600D01*
X158267767Y-108276933D01*
X158967767Y-108843600D02*
X158934433Y-108876933D01*
X158834433Y-108910267D01*
X158767767Y-108910267D01*
X158667767Y-108876933D01*
X158601100Y-108810267D01*
X158567767Y-108743600D01*
X158534433Y-108610267D01*
X158534433Y-108510267D01*
X158567767Y-108376933D01*
X158601100Y-108310267D01*
X158667767Y-108243600D01*
X158767767Y-108210267D01*
X158834433Y-108210267D01*
X158934433Y-108243600D01*
X158967767Y-108276933D01*
X157557767Y-106383600D02*
X157524433Y-106416933D01*
X157424433Y-106450267D01*
X157357767Y-106450267D01*
X157257767Y-106416933D01*
X157191100Y-106350267D01*
X157157767Y-106283600D01*
X157124433Y-106150267D01*
X157124433Y-106050267D01*
X157157767Y-105916933D01*
X157191100Y-105850267D01*
X157257767Y-105783600D01*
X157357767Y-105750267D01*
X157424433Y-105750267D01*
X157524433Y-105783600D01*
X157557767Y-105816933D01*
X157824433Y-106416933D02*
X157924433Y-106450267D01*
X158091100Y-106450267D01*
X158157767Y-106416933D01*
X158191100Y-106383600D01*
X158224433Y-106316933D01*
X158224433Y-106250267D01*
X158191100Y-106183600D01*
X158157767Y-106150267D01*
X158091100Y-106116933D01*
X157957767Y-106083600D01*
X157891100Y-106050267D01*
X157857767Y-106016933D01*
X157824433Y-105950267D01*
X157824433Y-105883600D01*
X157857767Y-105816933D01*
X157891100Y-105783600D01*
X157957767Y-105750267D01*
X158124433Y-105750267D01*
X158224433Y-105783600D01*
X158524434Y-106450267D02*
X158524434Y-105750267D01*
X158924434Y-106450267D01*
X158924434Y-105750267D01*
X156851101Y-103900267D02*
X156851101Y-103200267D01*
X157084434Y-103700267D01*
X157317767Y-103200267D01*
X157317767Y-103900267D01*
X157784434Y-103200267D02*
X157917767Y-103200267D01*
X157984434Y-103233600D01*
X158051101Y-103300267D01*
X158084434Y-103433600D01*
X158084434Y-103666933D01*
X158051101Y-103800267D01*
X157984434Y-103866933D01*
X157917767Y-103900267D01*
X157784434Y-103900267D01*
X157717767Y-103866933D01*
X157651101Y-103800267D01*
X157617767Y-103666933D01*
X157617767Y-103433600D01*
X157651101Y-103300267D01*
X157717767Y-103233600D01*
X157784434Y-103200267D01*
X158351100Y-103866933D02*
X158451100Y-103900267D01*
X158617767Y-103900267D01*
X158684434Y-103866933D01*
X158717767Y-103833600D01*
X158751100Y-103766933D01*
X158751100Y-103700267D01*
X158717767Y-103633600D01*
X158684434Y-103600267D01*
X158617767Y-103566933D01*
X158484434Y-103533600D01*
X158417767Y-103500267D01*
X158384434Y-103466933D01*
X158351100Y-103400267D01*
X158351100Y-103333600D01*
X158384434Y-103266933D01*
X158417767Y-103233600D01*
X158484434Y-103200267D01*
X158651100Y-103200267D01*
X158751100Y-103233600D01*
X159051101Y-103900267D02*
X159051101Y-103200267D01*
X157324434Y-101280267D02*
X157324434Y-100580267D01*
X158057767Y-101280267D02*
X157824433Y-100946933D01*
X157657767Y-101280267D02*
X157657767Y-100580267D01*
X157924433Y-100580267D01*
X157991100Y-100613600D01*
X158024433Y-100646933D01*
X158057767Y-100713600D01*
X158057767Y-100813600D01*
X158024433Y-100880267D01*
X157991100Y-100913600D01*
X157924433Y-100946933D01*
X157657767Y-100946933D01*
X158824433Y-101346933D02*
X158757767Y-101313600D01*
X158691100Y-101246933D01*
X158591100Y-101146933D01*
X158524433Y-101113600D01*
X158457767Y-101113600D01*
X158491100Y-101280267D02*
X158424433Y-101246933D01*
X158357767Y-101180267D01*
X158324433Y-101046933D01*
X158324433Y-100813600D01*
X158357767Y-100680267D01*
X158424433Y-100613600D01*
X158491100Y-100580267D01*
X158624433Y-100580267D01*
X158691100Y-100613600D01*
X158757767Y-100680267D01*
X158791100Y-100813600D01*
X158791100Y-101046933D01*
X158757767Y-101180267D01*
X158691100Y-101246933D01*
X158624433Y-101280267D01*
X158491100Y-101280267D01*
X163691101Y-101280267D02*
X163691101Y-100580267D01*
X163924434Y-101080267D01*
X164157767Y-100580267D01*
X164157767Y-101280267D01*
X164491101Y-101280267D02*
X164491101Y-100580267D01*
X164791100Y-101246933D02*
X164891100Y-101280267D01*
X165057767Y-101280267D01*
X165124434Y-101246933D01*
X165157767Y-101213600D01*
X165191100Y-101146933D01*
X165191100Y-101080267D01*
X165157767Y-101013600D01*
X165124434Y-100980267D01*
X165057767Y-100946933D01*
X164924434Y-100913600D01*
X164857767Y-100880267D01*
X164824434Y-100846933D01*
X164791100Y-100780267D01*
X164791100Y-100713600D01*
X164824434Y-100646933D01*
X164857767Y-100613600D01*
X164924434Y-100580267D01*
X165091100Y-100580267D01*
X165191100Y-100613600D01*
X165624434Y-100580267D02*
X165757767Y-100580267D01*
X165824434Y-100613600D01*
X165891101Y-100680267D01*
X165924434Y-100813600D01*
X165924434Y-101046933D01*
X165891101Y-101180267D01*
X165824434Y-101246933D01*
X165757767Y-101280267D01*
X165624434Y-101280267D01*
X165557767Y-101246933D01*
X165491101Y-101180267D01*
X165457767Y-101046933D01*
X165457767Y-100813600D01*
X165491101Y-100680267D01*
X165557767Y-100613600D01*
X165624434Y-100580267D01*
X163471100Y-103756933D02*
X163571100Y-103790267D01*
X163737767Y-103790267D01*
X163804434Y-103756933D01*
X163837767Y-103723600D01*
X163871100Y-103656933D01*
X163871100Y-103590267D01*
X163837767Y-103523600D01*
X163804434Y-103490267D01*
X163737767Y-103456933D01*
X163604434Y-103423600D01*
X163537767Y-103390267D01*
X163504434Y-103356933D01*
X163471100Y-103290267D01*
X163471100Y-103223600D01*
X163504434Y-103156933D01*
X163537767Y-103123600D01*
X163604434Y-103090267D01*
X163771100Y-103090267D01*
X163871100Y-103123600D01*
X164571101Y-103723600D02*
X164537767Y-103756933D01*
X164437767Y-103790267D01*
X164371101Y-103790267D01*
X164271101Y-103756933D01*
X164204434Y-103690267D01*
X164171101Y-103623600D01*
X164137767Y-103490267D01*
X164137767Y-103390267D01*
X164171101Y-103256933D01*
X164204434Y-103190267D01*
X164271101Y-103123600D01*
X164371101Y-103090267D01*
X164437767Y-103090267D01*
X164537767Y-103123600D01*
X164571101Y-103156933D01*
X164871101Y-103790267D02*
X164871101Y-103090267D01*
X165271101Y-103790267D02*
X164971101Y-103390267D01*
X165271101Y-103090267D02*
X164871101Y-103490267D01*
X164321101Y-106403600D02*
X164287767Y-106436933D01*
X164187767Y-106470267D01*
X164121101Y-106470267D01*
X164021101Y-106436933D01*
X163954434Y-106370267D01*
X163921101Y-106303600D01*
X163887767Y-106170267D01*
X163887767Y-106070267D01*
X163921101Y-105936933D01*
X163954434Y-105870267D01*
X164021101Y-105803600D01*
X164121101Y-105770267D01*
X164187767Y-105770267D01*
X164287767Y-105803600D01*
X164321101Y-105836933D01*
X164621101Y-106103600D02*
X164854434Y-106103600D01*
X164954434Y-106470267D02*
X164621101Y-106470267D01*
X164621101Y-105770267D01*
X164954434Y-105770267D01*
X163867767Y-108333600D02*
X163801101Y-108300267D01*
X163701101Y-108300267D01*
X163601101Y-108333600D01*
X163534434Y-108400267D01*
X163501101Y-108466933D01*
X163467767Y-108600267D01*
X163467767Y-108700267D01*
X163501101Y-108833600D01*
X163534434Y-108900267D01*
X163601101Y-108966933D01*
X163701101Y-109000267D01*
X163767767Y-109000267D01*
X163867767Y-108966933D01*
X163901101Y-108933600D01*
X163901101Y-108700267D01*
X163767767Y-108700267D01*
X164201101Y-109000267D02*
X164201101Y-108300267D01*
X164601101Y-109000267D01*
X164601101Y-108300267D01*
X164934434Y-109000267D02*
X164934434Y-108300267D01*
X165101100Y-108300267D01*
X165201100Y-108333600D01*
X165267767Y-108400267D01*
X165301100Y-108466933D01*
X165334434Y-108600267D01*
X165334434Y-108700267D01*
X165301100Y-108833600D01*
X165267767Y-108900267D01*
X165201100Y-108966933D01*
X165101100Y-109000267D01*
X164934434Y-109000267D01*
M02*
